<?xml version="1.0" encoding="utf-8"?>
<!-- Generator: Adobe Illustrator 24.1.0, SVG Export Plug-In . SVG Version: 6.00 Build 0)  -->
<svg version="1.1" id="Layer_1" xmlns="http://www.w3.org/2000/svg" xmlns:xlink="http://www.w3.org/1999/xlink" x="0px" y="0px"
	 viewBox="0 0 429.3 97.8" style="enable-background:new 0 0 429.3 97.8;" xml:space="preserve">
<g id="GraphicDesign_rgb">
	<path d="M282,11.5h3.4c-0.1,1.9-0.3,4-0.3,6.2v16.5c0,5.5,0.3,9.9-5.8,12.7c-1.9,1-4.1,1.4-6.2,1.3c-5,0-10.9-1.7-10.9-7.4h3.5
		c0.4,3.3,4.3,4.4,7.8,4.4c4.3,0,8.2-3,8.3-7.6v-3.8h-0.1c-1.6,3.2-5.4,5.1-8.9,5.1c-8.2,0-11.8-6.3-11.8-13.8s3.3-14.3,11.7-14.3
		c4,0,6.8,1.9,9,5.1l0.1-0.2L282,11.5z M273,13.7c-6,0-8.5,6-8.5,11s2.6,11.1,8.6,11.1c6.3,0,8.7-5.9,8.7-11.2S278.9,13.7,273,13.7
		L273,13.7z"/>
	<path d="M296,38.9h-3.3V17.7c0-2.1-0.2-4.3-0.3-6.2h3.4l0.2,4h0.1c0.9-2.7,3.3-4.7,6.2-4.9c1.1,0,2.2,0,3.3,0.1v3.2
		c-0.6-0.1-1.4-0.2-2-0.2c-4.9,0-7.4,3.5-7.5,8.7L296,38.9z"/>
	<path d="M325.9,19.6c-0.3-4.5-2.6-5.9-6.5-5.9c-3.4,0-6.3,1-6.7,4.7h-3.5c0.8-5.6,5-7.8,10.3-7.8c6.1,0,9.8,2.8,9.7,9.1v13
		c-0.1,2.1,0.2,4.3,0.3,6.2h-3.4l-0.1-4h-0.1l-0.2,0.4c-1.2,2.3-4.9,4.5-8.6,4.5c-5.1,0-9.1-3.1-9.1-8.5c0-3.5,2.2-6.7,5.5-7.9
		c3.7-1.6,8.4-1,12.4-1.2V19.6z M317.7,36.7c7.2,0,8.5-5.9,8.2-11.6c-4.6,0.2-14.4-0.7-14.4,6.2C311.5,35,314.4,36.7,317.7,36.7z"/>
	<path d="M340.1,48.1h-3.3V17.7c0.1-2.1-0.2-4.3-0.3-6.2h3.4l0.2,4l0.1,0.1c2.1-3.2,5.6-5.1,9.4-5c8.1,0,11.3,7.3,11.3,14.4
		c0,6.9-3.1,14.7-11.1,14.7c-3.9,0.1-7.5-1.9-9.6-5.1h-0.1L340.1,48.1z M349.5,36.7c6.3,0,7.9-6.9,7.9-12c0-5.2-2.1-11-8.4-11
		c-6.4,0-8.9,5.3-8.9,10.9C340.1,30.8,342.3,36.7,349.5,36.7L349.5,36.7z"/>
	<path d="M370.3,15.6h0.1c1.7-3.2,5-5.1,8.6-5c9,0,9.7,7.9,9.7,11.1v17.1h-3.3V21.2c0-4.8-2.7-7.5-7.2-7.5c-5.4,0-7.9,4.5-7.9,9.4
		v15.8H367V2.4h3.3V15.6z"/>
	<path d="M400.2,6.5h-3.8V2.4h3.8V6.5z M399.9,11.5v27.4h-3.3V11.5L399.9,11.5z"/>
	<path d="M425.8,19.9c-0.3-4.2-3-6.2-7.5-6.2c-5,0-8.1,5.2-8.1,11.5s3.1,11.6,8.1,11.6c4.3,0,7.2-2.6,7.5-6.4h3.5
		c-0.9,6.3-4.5,9.4-10.7,9.4c-8.2,0-12-7-12-14.5s4.1-14.5,12.2-14.5c5.6,0,10.2,3.4,10.5,9.2L425.8,19.9z"/>
	<path d="M281.8,80.9l-0.1-0.2c-2.1,3.2-5.6,5.1-9.4,5.1c-8.1,0-11.3-7.8-11.3-14.6c0-7.1,3.1-14.4,11.3-14.4c3.8-0.1,7.3,1.8,9.4,5
		l0.1-0.1V48.1h3.3v30.6c0,2.1,0.2,4.3,0.3,6.2H282L281.8,80.9z M272.8,59.7c-6.2,0-8.2,5.8-8.2,11s1.5,12,7.8,12
		c7.2,0,9.4-6,9.4-12.2C281.7,65,279.2,59.6,272.8,59.7L272.8,59.7z"/>
	<path d="M293.5,71.9c0.1,5.8,2.8,10.8,9.5,10.8c3.9,0,7.2-2.8,7.9-6.6h3.4c-1.7,6.6-5.8,9.6-12.4,9.6c-8.2,0-12-7-12-14.5
		s4.1-14.5,12.2-14.5c9.2,0,12.5,6.7,12.5,15.3L293.5,71.9z M311.1,68.9c-0.4-5.3-3.2-9.3-8.9-9.3c-5.4,0-8.2,4.5-8.6,9.3H311.1z"/>
	<path d="M330.6,56.6c5.2,0,9.6,1.8,10,7.6H337c-0.3-3.4-3.4-4.6-6.8-4.6c-3.1,0-6.2,1.2-6.2,4.4c0,4,5.3,3.7,12.7,6.3
		c2.8,0.9,4.7,3.5,4.6,6.4c0,6.2-5.7,9-11.5,9c-4.8,0-10.2-2.2-10.3-8.3h3.5c0.3,4.1,3.9,5.3,7.6,5.3c3.5,0,7.2-1.6,7.2-5.5
		s-4.3-4.6-8.7-5.6s-8.7-2.3-8.7-7.4C320.5,58.6,325.7,56.6,330.6,56.6z"/>
	<path d="M351.5,52.3h-3.8v-4.1h3.8V52.3z M351.3,57.5v27.4H348V57.5H351.3z"/>
	<path d="M378.9,57.5h3.4c-0.1,1.9-0.3,4-0.3,6.2v16.5c0,5.5,0.3,11.2-5.8,14c-1.9,0.9-4.1,1.4-6.2,1.3c-5,0-10.9-1.7-10.9-7.4h3.6
		c0.4,3.3,4.3,4.4,7.8,4.4c4.3,0,8.2-3,8.3-7.6v-5.1h-0.1c-1.8,3.2-5.3,5.2-9,5.1c-8.3,0-11.8-6.3-11.8-13.8s3.3-14.3,11.7-14.3
		c4,0,6.8,1.9,9,5.1l0.1-0.2L378.9,57.5z M369.9,59.6c-6,0-8.5,6-8.5,11s2.6,11.1,8.6,11.1c6.3,0,8.7-5.8,8.7-11.2
		S375.8,59.6,369.9,59.6L369.9,59.6z"/>
	<path d="M392.9,84.9h-3.3V63.6c0-2.1-0.2-4.3-0.3-6.2h3.4l0.2,4l0.1,0.1c1.7-3.2,5-5.1,8.6-5c9,0,9.7,7.9,9.7,11.1v17.2H408V67.2
		c0-4.8-2.7-7.6-7.2-7.6c-5.4,0-7.9,4.5-7.9,9.5L392.9,84.9z"/>
	<rect x="240.6" y="29.7" width="1" height="36.6"/>
	<polygon points="27.6,30.1 19.2,56.4 19.1,56.4 11.1,30.1 0,30.1 12.6,66.5 24.6,66.5 37.6,30.1 	"/>
	<path d="M97.1,30v22.4C97,57,95,60,90.3,60s-6.7-2.9-6.8-7.6V30H73.3v23.1c0.1,10.2,7.7,14.2,17,14.2s16.8-4,16.9-14.2V30H97.1z"/>
	<path d="M53.7,60.2c-5.7,0-6.9-6.3-6.9-11.6s1.1-12.3,6.9-12.3c4.1,0,5.6,1.9,5.8,5.2h10.6c0.1-8.9-8.1-12.1-16.7-12.3
		c-11.3,0.2-17.3,6.8-17.3,19s6.1,19.1,17.6,19.1h0.8c8.5-0.2,15.9-3.5,15.7-12.5H59.5C59.3,58.3,57.9,60.2,53.7,60.2z"/>
	<path d="M183.2,55.4v-17h5.7v-8.5h-5.7v-9.8l-10.3,2.6l0,0v32.9c0,0,0,0.1,0,0.1v0.1c0.1,6.9,1.7,11.2,9.8,11.2
		c2.1-0.1,4.3-0.3,6.4-0.6l0,0v-7.8h-2.8C184.3,58.6,183.2,57.5,183.2,55.4z"/>
	<path d="M157.2,36.6L157.2,36.6l-0.3-6.5v0h-9.1v36.4h10.4V48.8l0,0v-0.1c0-3.5,0.8-6,2.3-7.6c1.7-1.8,4.4-2.7,8.1-2.7h0.9v-8.7
		h-0.1C163.2,29.4,159.2,31.7,157.2,36.6z"/>
	<path d="M132.4,29.5L132.4,29.5l-0.7-0.1h-0.1l-0.6-0.1h-0.1h-0.2h-0.4h-0.3h-0.2h-0.2h-0.6h-0.8c-3.5-0.1-7,0.8-10,2.6
		c-3.1,1.8-4.7,4.7-4.7,8.7v0.1h9.9v-0.1c-0.1-1.4,0.4-2.8,1.3-3.8c0.9-1,2.1-1.5,3.4-1.4h0.7h0.1c2.4,0,4.3,2,4.4,4.4v3.6h-2.3
		c-3.5-0.1-7.1,0.4-10.5,1.4c-0.6,0.2-1,0.4-1.5,0.6c-0.8,0.3-1.5,0.7-2.2,1.2c-1.8,1.2-3.2,2.8-4.1,4.6c-0.3,0.5-0.5,1.1-0.7,1.6
		c-0.2,0.7-0.4,1.5-0.6,2.2c-0.1,0.6-0.1,1.2-0.1,1.8c0,3,1.2,5.9,3.5,7.8l0,0c0.3,0.2,0.5,0.4,0.8,0.6l0,0l0,0
		c0.3,0.2,0.5,0.3,0.8,0.5h0.1h0.1l0.8,0.4h0.1h0.1c0.2,0.1,0.5,0.2,0.8,0.3l0.2,0.1h0.1h0.1l0.6,0.2l0.3,0.1h0.2h0.2l0.5,0.1h0.5
		h0.2h0.2h0.3c0.4,0,0.8,0,1.2,0h0.7c4.5,0,7.9-1.5,10.2-4.6l0.9,3.8h9V42.6C143.7,33.3,137.5,30.3,132.4,29.5z M127.2,60h-0.3
		c-2.7,0.1-5-2-5.2-4.7c0-1.3,0.4-2.5,1.3-3.4c1-1,2.9-2.2,8.8-2.2h1.5c0,0.4,0,0.8,0,1.2c0,3.3,0.1,6.1-1.5,7.7
		C130.9,59.6,129.4,60,127.2,60L127.2,60L127.2,60z"/>
	<path d="M222.2,55.4c0-0.1,0-0.1,0-0.2l0,0c0-7.1-5.5-9.5-11.7-11.1c-0.7-0.2-6.8-1.7-7.7-2.2c-0.4-0.2-0.8-0.6-1.1-1
		c-0.1-0.3-0.2-0.7-0.3-1c0,0,0-0.1,0-0.1l0,0c0,0,0-0.1,0-0.2v-0.1l0,0c0.1-1,0.8-3,4.6-3c2.7,0,4.7,0.9,5.4,3
		c0.2,0.5,0.3,1,0.4,1.5l0,0h9.1l0,0c-0.6-7.2-6.8-11.8-14.6-11.8c-4.9,0-14.6,1.8-14.6,11.3c0,6.3,5.7,9.2,10.9,10.6
		c2.9,0.8,6,1.6,7.1,2.1c0.7,0.2,1.3,0.6,1.9,1.1c0.4,0.4,0.5,0.9,0.5,1.5l0,0l0,0v0.1c0,1.7-1.5,3.3-5.5,3.3
		c-3.5,0-6.1-1.3-6.5-5.2L200,54h-9.2v0.3c0,0.1,0,0.2,0,0.3l0,0c0.1,7.7,5.8,13.1,15,13.1l0,0c9.5,0,16.3-4.2,16.3-12l0,0
		C222.2,55.5,222.2,55.5,222.2,55.4z"/>
</g>
</svg>
