<?xml version="1.0" encoding="utf-8"?>
<!-- Generator: Adobe Illustrator 24.1.0, SVG Export Plug-In . SVG Version: 6.00 Build 0)  -->
<svg version="1.1" id="Layer_1" xmlns="http://www.w3.org/2000/svg" xmlns:xlink="http://www.w3.org/1999/xlink" x="0px" y="0px"
	 viewBox="0 0 470 120" style="enable-background:new 0 0 470 120;" xml:space="preserve">
<g id="GraphicDesign_rgb">
	<path d="M302.3,22.6h3.4c-0.1,1.9-0.3,4-0.3,6.2v16.4c0,5.5,0.3,9.9-5.8,12.7c-1.9,1-4.1,1.4-6.2,1.3c-5,0-10.9-1.7-10.9-7.4h3.5
		c0.4,3.3,4.3,4.4,7.8,4.4c4.3,0,8.2-3,8.3-7.6v-3.8H302c-1.6,3.2-5.4,5.1-8.9,5.1c-8.2,0-11.8-6.3-11.8-13.8s3.3-14.3,11.7-14.3
		c4,0,6.8,1.9,9,5.1l0.1-0.2L302.3,22.6z M293.3,24.8c-6,0-8.5,6-8.5,11s2.6,11.1,8.6,11.1c6.3,0,8.7-5.8,8.7-11.2
		S299.2,24.8,293.3,24.8L293.3,24.8z"/>
	<path d="M316.4,50h-3.3V28.8c0-2.1-0.2-4.3-0.3-6.2h3.4l0.2,4h0.1c0.9-2.7,3.3-4.7,6.2-4.9c1.1,0,2.2,0,3.3,0.1V25
		c-0.6-0.1-1.4-0.2-2-0.2c-4.9,0-7.4,3.5-7.5,8.7L316.4,50z"/>
	<path d="M346.2,30.7c-0.3-4.5-2.6-5.9-6.5-5.9c-3.4,0-6.3,1-6.7,4.8h-3.5c0.8-5.6,5-7.8,10.3-7.8c6.1,0,9.8,2.8,9.7,9.1v13
		c-0.1,2.1,0.2,4.3,0.3,6.2h-3.4l-0.1-4h-0.1l-0.2,0.4c-1.2,2.3-4.9,4.5-8.6,4.5c-5.1,0-9.1-3.1-9.1-8.5c0-3.5,2.2-6.7,5.5-7.9
		c3.7-1.6,8.4-1,12.4-1.2V30.7z M338,47.8c7.2,0,8.5-5.9,8.2-11.6c-4.6,0.2-14.4-0.7-14.4,6.2C331.9,46.1,334.7,47.8,338,47.8z"/>
	<path d="M360.5,59.2h-3.3V28.8c0.1-2.1-0.2-4.3-0.3-6.2h3.4l0.2,4l0.1,0.1c2.1-3.2,5.6-5.1,9.4-5c8.1,0,11.3,7.3,11.3,14.4
		c0,6.9-3.1,14.7-11.1,14.7c-3.9,0.1-7.5-1.9-9.6-5.1h-0.1L360.5,59.2z M369.8,47.9c6.3,0,7.9-6.9,7.9-12c0-5.2-2.1-11-8.4-11
		c-6.4,0-8.9,5.3-8.9,10.9C360.5,41.9,362.6,47.8,369.8,47.9L369.8,47.9z"/>
	<path d="M390.6,26.8h0.1c1.7-3.2,5-5.1,8.6-5c9,0,9.7,7.9,9.7,11.1V50h-3.3V32.3c0-4.8-2.7-7.5-7.2-7.5c-5.4,0-7.9,4.5-7.9,9.5V50
		h-3.3V13.5h3.3V26.8z"/>
	<path d="M420.5,17.6h-3.8v-4.1h3.8V17.6z M420.3,22.6V50H417V22.6L420.3,22.6z"/>
	<path d="M446.1,31c-0.3-4.2-3-6.2-7.5-6.2c-5,0-8.1,5.2-8.1,11.5s3.1,11.6,8.1,11.6c4.3,0,7.2-2.6,7.5-6.4h3.5
		c-0.9,6.3-4.5,9.4-10.7,9.4c-8.2,0-12-7-12-14.5s4.1-14.5,12.2-14.5c5.6,0,10.2,3.4,10.5,9.2L446.1,31z"/>
	<path d="M302.1,92l-0.1-0.2c-2.1,3.2-5.6,5.1-9.4,5.1c-8.1,0-11.3-7.8-11.3-14.6c0-7.1,3.1-14.4,11.3-14.4c3.8-0.1,7.3,1.8,9.4,5
		l0.1-0.1V59.2h3.3v30.6c0,2.1,0.2,4.3,0.3,6.2h-3.4L302.1,92z M293.1,70.8c-6.2,0-8.2,5.8-8.2,11s1.5,12,7.8,12
		c7.2,0,9.4-6,9.4-12.2C302,76.1,299.6,70.8,293.1,70.8L293.1,70.8z"/>
	<path d="M313.8,83.1c0.1,5.8,2.8,10.8,9.5,10.8c3.9,0,7.2-2.8,7.9-6.6h3.4c-1.7,6.6-5.8,9.6-12.4,9.6c-8.2,0-12-7-12-14.5
		s4.1-14.5,12.2-14.5c9.2,0,12.5,6.7,12.5,15.3L313.8,83.1z M331.5,80.1c-0.4-5.3-3.2-9.3-8.9-9.3c-5.4,0-8.2,4.5-8.6,9.3H331.5z"/>
	<path d="M350.9,67.8c5.2,0,9.6,1.8,10,7.6h-3.5c-0.3-3.4-3.4-4.6-6.8-4.6c-3.1,0-6.2,1.2-6.2,4.4c0,4,5.3,3.7,12.7,6.3
		c2.8,0.9,4.7,3.5,4.6,6.4c0,6.2-5.7,9-11.5,9c-4.8,0-10.2-2.2-10.3-8.3h3.5c0.3,4.1,3.9,5.3,7.6,5.3c3.5,0,7.2-1.6,7.2-5.5
		s-4.3-4.6-8.7-5.6s-8.7-2.3-8.7-7.4C340.8,69.7,346.1,67.8,350.9,67.8z"/>
	<path d="M371.9,63.4h-3.8v-4.1h3.8V63.4z M371.6,68.6V96h-3.3V68.6H371.6z"/>
	<path d="M399.2,68.6h3.4c-0.1,1.9-0.3,4-0.3,6.2v16.5c0,5.5,0.3,11.2-5.8,14c-1.9,0.9-4.1,1.4-6.2,1.3c-5,0-10.9-1.7-10.9-7.4h3.6
		c0.4,3.3,4.3,4.4,7.8,4.4c4.3,0,8.2-3,8.3-7.6v-5.1H399c-1.8,3.2-5.3,5.2-9,5.1c-8.3,0-11.8-6.3-11.8-13.8s3.3-14.3,11.7-14.3
		c4,0,6.8,1.9,9,5.1l0.1-0.2L399.2,68.6z M390.2,70.8c-6,0-8.5,6-8.5,11s2.6,11.1,8.6,11.1c6.3,0,8.7-5.8,8.7-11.2
		S396.1,70.8,390.2,70.8L390.2,70.8z"/>
	<path d="M413.3,96H410V74.8c0-2.1-0.2-4.3-0.3-6.2h3.4l0.2,4l0.1,0.1c1.7-3.2,5-5.1,8.6-5c9,0,9.7,7.9,9.7,11.1V96h-3.3V78.3
		c0-4.8-2.7-7.6-7.2-7.6c-5.4,0-7.9,4.5-7.9,9.5L413.3,96z"/>
	<rect x="261" y="40.8" width="1" height="36.6"/>
	<polygon points="47.9,41.2 39.5,67.6 39.4,67.6 31.5,41.2 20.3,41.2 32.9,77.6 45,77.6 57.9,41.2 	"/>
	<path d="M117.5,41.2v22.4c-0.2,4.6-2.1,7.6-6.8,7.6s-6.7-2.9-6.8-7.6V41.2H93.7v23.1c0.1,10.2,7.7,14.2,17,14.2s16.8-4,16.9-14.2
		V41.2H117.5z"/>
	<path d="M74,71.3c-5.7,0-6.9-6.3-6.9-11.6s1.1-12.3,6.9-12.3c4.1,0,5.6,1.9,5.8,5.2h10.6c0.2-8.9-8.1-12.1-16.7-12.3
		c-11.3,0.2-17.3,6.8-17.3,19S62.5,78.4,74,78.4h0.8c8.5-0.2,15.9-3.5,15.7-12.5H79.9C79.7,69.4,78.2,71.3,74,71.3z"/>
	<path d="M203.5,66.5v-17h5.7V41h-5.7v-9.8l-10.3,2.6l0,0v32.9c0,0,0,0.1,0,0.1v0.1c0.1,6.9,1.7,11.2,9.8,11.2
		c2.1-0.1,4.3-0.3,6.4-0.6l0,0v-7.8h-2.8C204.6,69.8,203.5,68.7,203.5,66.5z"/>
	<path d="M177.6,47.7L177.6,47.7l-0.3-6.5v0h-9.1v36.4h10.4V59.9l0,0v-0.1c0-3.5,0.8-6,2.3-7.6c1.7-1.8,4.4-2.7,8.1-2.7h0.9v-8.7
		h-0.1C183.5,40.5,179.6,42.8,177.6,47.7z"/>
	<path d="M152.8,40.6L152.8,40.6l-0.7-0.1H152l-0.6-0.1h-0.1h-0.2h-0.4h-0.3h-0.2H150h-0.6h-0.8c-3.5-0.1-7,0.8-10,2.6
		c-3.1,1.8-4.7,4.7-4.7,8.7v0.1h9.9v-0.1c-0.1-1.4,0.4-2.8,1.3-3.8c0.9-1,2.1-1.5,3.4-1.4h0.7h0.1c2.4,0,4.3,2,4.4,4.4v3.6h-2.3
		c-3.5-0.1-7.1,0.4-10.5,1.4c-0.6,0.2-1,0.4-1.5,0.6c-0.8,0.3-1.5,0.7-2.2,1.2c-1.8,1.2-3.2,2.8-4.1,4.6c-0.3,0.5-0.5,1.1-0.7,1.6
		c-0.2,0.7-0.4,1.5-0.6,2.2c-0.1,0.6-0.1,1.2-0.1,1.8c0,3,1.2,5.9,3.5,7.8l0,0c0.3,0.2,0.5,0.4,0.8,0.6l0,0l0,0
		c0.3,0.2,0.5,0.3,0.8,0.5h0.1h0.1l0.8,0.4h0.1h0.1c0.2,0.1,0.5,0.2,0.8,0.3l0.2,0.1h0.1h0.1l0.6,0.2l0.3,0.1h0.2h0.2l0.5,0.1h0.5
		h0.2h0.2h0.3c0.4,0,0.8,0,1.2,0h0.7c4.5,0,7.9-1.5,10.2-4.6l0.9,3.8h9V53.7C164,44.4,157.9,41.4,152.8,40.6z M147.6,71.1h-0.3
		c-2.7,0.1-5-2-5.2-4.7c0-1.3,0.4-2.5,1.3-3.4c1-1,2.9-2.2,8.8-2.2h1.5c0,0.4,0,0.8,0,1.2c0,3.3,0.1,6.1-1.5,7.7
		C151.2,70.7,149.7,71.1,147.6,71.1L147.6,71.1L147.6,71.1z"/>
	<path d="M242.5,66.5c0-0.1,0-0.1,0-0.2l0,0c0-7.1-5.5-9.5-11.7-11.1c-0.7-0.2-6.8-1.7-7.7-2.2c-0.4-0.2-0.8-0.6-1.1-1
		c-0.1-0.3-0.2-0.7-0.3-1c0,0,0-0.1,0-0.1l0,0c0,0,0-0.1,0-0.2v-0.1l0,0c0.1-1,0.8-3,4.6-3c2.7,0,4.7,0.9,5.4,3
		c0.2,0.5,0.3,1,0.4,1.5l0,0h9.1l0,0c-0.6-7.2-6.8-11.8-14.6-11.8c-4.9,0-14.6,1.8-14.6,11.3c0,6.3,5.7,9.2,10.9,10.6
		c2.9,0.8,6,1.6,7.1,2.1c0.7,0.2,1.3,0.6,1.9,1.1c0.4,0.4,0.5,0.9,0.5,1.5l0,0l0,0V67c0,1.7-1.5,3.3-5.5,3.3c-3.5,0-6.1-1.3-6.5-5.2
		l-0.1,0.1h-9.2v0.3c0,0.1,0,0.2,0,0.3l0,0c0.1,7.7,5.8,13.1,15,13.1l0,0c9.5,0,16.3-4.2,16.3-12l0,0
		C242.5,66.7,242.5,66.6,242.5,66.5z"/>
</g>
</svg>
